HIERARCHY
ROOT hip
{
	OFFSET 0.000000 0.000000 0.000000 
	CHANNELS 6 Xposition Yposition Zposition Xrotation Zrotation Yrotation
	JOINT abdomen
	{
		OFFSET 0.000000 3.402643 0.000000 
		CHANNELS 3 Xrotation Zrotation Yrotation
		JOINT chest
		{
			OFFSET 0.000000 8.438565 -0.680529 
			CHANNELS 3 Xrotation Zrotation Yrotation
			JOINT neck
			{
				OFFSET 0.000000 10.207942 -0.272212 
				CHANNELS 3 Xrotation Zrotation Yrotation
				JOINT head
				{
					OFFSET 0.000000 3.130431 0.000000 
					CHANNELS 3 Xrotation Zrotation Yrotation
					End Site
					{
						OFFSET 0.000000 3.130435 0.000000 
					}
				}
			}
			JOINT lCollar
			{
				OFFSET 3.470700 6.669187 -0.816635 
				CHANNELS 3 Yrotation Zrotation Xrotation
				JOINT lShldr
				{
					OFFSET 3.198488 0.000000 0.000000 
					CHANNELS 3 Zrotation Yrotation Xrotation
					JOINT lForeArm
					{
						OFFSET 10.139888 0.000000 0.000000 
						CHANNELS 3 Yrotation Zrotation Xrotation
						JOINT lHand
						{
							OFFSET 8.370511 0.000000 0.000000 
							CHANNELS 3 Zrotation Yrotation Xrotation
							End Site
							{
								OFFSET 4.083176 0.000000 0.000000 
							}
						}
					}
				}
			}
			JOINT rCollar
			{
				OFFSET -3.470700 6.669187 -0.816635 
				CHANNELS 3 Yrotation Zrotation Xrotation
				JOINT rShldr
				{
					OFFSET -3.198488 0.000000 0.000000 
					CHANNELS 3 Zrotation Yrotation Xrotation
					JOINT rForeArm
					{
						OFFSET -10.139888 0.000000 0.000000 
						CHANNELS 3 Yrotation Zrotation Xrotation
						JOINT rHand
						{
							OFFSET -8.370511 0.000000 0.000000 
							CHANNELS 3 Zrotation Yrotation Xrotation
							End Site
							{
								OFFSET -4.083176 0.000000 0.000000 
							}
						}
					}
				}
			}
		}
	}
	JOINT lThigh
	{
		OFFSET 5.308129 -1.633274 1.361059 
		CHANNELS 3 Xrotation Zrotation Yrotation
		JOINT lShin
		{
			OFFSET -2.041588 -20.007561 0.000000 
			CHANNELS 3 Xrotation Zrotation Yrotation
			JOINT lFoot
			{
				OFFSET 0.000000 -19.190928 -1.224953 
				CHANNELS 3 Xrotation Yrotation Zrotation
				End Site
				{
					OFFSET 0.000000 -2.449906 4.627600 
				}
			}
		}
	}
	JOINT rThigh
	{
		OFFSET -5.308129 -1.633274 1.361059 
		CHANNELS 3 Xrotation Zrotation Yrotation
		JOINT rShin
		{
			OFFSET 2.041588 -20.007561 0.000000 
			CHANNELS 3 Xrotation Zrotation Yrotation
			JOINT rFoot
			{
				OFFSET 0.000000 -19.190928 -1.224953 
				CHANNELS 3 Xrotation Yrotation Zrotation
				End Site
				{
					OFFSET 0.000000 -2.449906 4.627600 
				}
			}
		}
	}
}
MOTION
Frames: 8
Frame Time: 0.033333
-1.342831 51.934273 5.365971 5.273438 1.025375 42.988903 52.042747 -21.178236 3.991088 -22.041016 5.390625 5.704042 51.063168 8.107644 2.471410 -79.218750 -9.169921 61.152344 2.000000 -2.000000 0.000000 -82.197266 34.589848 -31.078440 -76.587372 -0.967142 -2.884045 75.786850 -3.489042 8.695653 -2.000000 2.000000 0.000000 53.046875 1.005859 -2.929514 122.363655 -1.790056 -2.906784 -54.026566 -34.073105 29.573360 -21.149567 15.260890 10.378309 49.930027 -3.526475 -3.913476 10.750175 15.752047 5.891735 9.263271 3.493144 -17.056894 9.676146 5.287385 1.030976 -1.340116 -10.446335 7.248705 
-2.685652 49.968582 10.731869 6.679688 0.683594 46.132927 50.195496 -26.862591 8.804334 -22.060547 4.345703 -0.057854 51.063168 8.107644 2.471410 -78.994141 -6.826171 57.294926 2.000000 -2.000000 0.000000 -87.099609 39.560547 -32.187500 -80.078400 -0.429381 -2.719676 72.279221 -0.479507 9.657896 -2.000000 2.000000 0.000000 41.884766 7.138073 2.383286 131.864380 -2.152762 -2.556911 -64.026993 -28.451258 29.906647 -21.088581 9.303272 10.026891 45.017845 -4.159839 -3.600661 10.677550 14.448193 5.496407 20.453281 11.810462 -16.750067 -8.624790 5.365816 -0.605968 5.389180 -9.950408 10.859882 
-3.978899 50.871128 16.273232 7.011719 0.507812 48.212891 48.593208 -31.433794 12.816156 -22.255861 3.281250 -4.951172 51.063168 8.107644 2.471410 -78.525391 -4.853515 54.433594 2.000000 -2.000000 0.000000 -87.167969 40.654297 -30.101061 -86.243507 -0.416099 -2.828008 67.540306 3.385696 10.285810 -2.000000 2.000000 0.000000 38.046871 9.560547 5.683593 135.376846 -2.469831 -2.487339 -69.184662 -25.964317 31.134529 -20.568985 3.786063 10.325710 39.880623 -4.083856 -3.442448 10.792237 12.531561 5.379245 23.592049 16.599308 -16.380823 -14.274443 5.278790 -1.098154 25.746340 -7.240050 17.169952 
-5.157526 50.964527 22.000320 5.625000 1.044922 49.140808 48.422245 -33.252422 14.106838 -22.792969 3.134766 -7.470702 51.063168 8.107644 2.471410 -78.574226 -3.896484 53.779297 2.000000 -2.000000 0.000000 -79.423828 35.400391 -18.320311 -89.752449 -0.120082 -2.952740 64.489273 4.942699 9.024878 -2.000000 2.000000 0.000000 45.000000 3.076172 2.979040 128.345444 -2.032510 -2.774475 -67.884659 -28.905924 36.856514 -19.457045 -0.020613 9.950124 34.991768 -4.694420 -3.187907 10.049114 8.539463 5.428822 16.239561 11.883822 -18.505684 0.167800 5.370601 -0.491897 26.539127 -5.680725 21.260176 
-6.268695 51.911224 27.819521 3.339844 2.089844 49.335938 51.175537 -31.480431 10.329845 -24.531252 4.052734 -6.601563 51.063168 8.107644 2.471410 -79.902344 -4.511657 56.747696 2.000000 -2.000000 0.000000 -73.457031 24.570313 -6.064453 -91.334763 -0.042652 -2.967011 63.364681 4.814732 6.868351 -2.000000 2.000000 0.000000 56.630859 -6.289063 -3.438568 115.699646 -1.330871 -3.066018 -63.041477 -35.355694 44.940983 -16.717022 -1.034942 9.660924 29.523695 -4.711064 -2.894500 8.729218 1.648579 4.392505 3.758353 1.991188 -19.665709 26.424465 4.750593 2.401957 26.257010 -8.948654 18.478153 
-7.431110 51.557159 33.750504 1.572266 2.792969 48.925781 55.294331 -26.848598 3.766117 -26.787109 5.859375 -3.163066 51.063168 8.107644 2.471410 -81.884766 -5.761718 62.548832 2.000000 -2.000000 0.000000 -72.275391 15.175782 2.336542 -94.679779 -0.277600 -3.139212 65.218124 2.996310 5.881248 -2.000000 2.000000 0.000000 64.501953 -15.244141 -10.087892 106.923538 -0.945011 -3.141484 -59.571293 -40.506931 50.454399 -6.472926 3.690136 7.205605 22.490545 -4.827304 -2.296170 -5.863714 1.529793 8.708131 -9.685582 -7.604454 -18.439999 53.081459 2.919653 4.042229 24.214016 -13.756834 10.229577 
-8.763539 50.836498 39.812943 0.869141 3.154297 48.554688 58.578850 -20.827843 -2.512962 -28.691404 7.832032 0.890003 51.063168 8.107644 2.471410 -83.134766 -6.923828 68.925781 2.000000 -2.000000 0.000000 -71.679688 10.576172 9.816246 -103.789589 0.612407 -3.141802 72.029068 -2.821407 7.259000 -2.000000 2.000000 0.000000 67.001953 -26.689455 -16.113281 105.348488 -0.658733 -3.017367 -57.812599 -41.101494 51.493626 -10.111382 10.647060 5.387970 33.420952 -4.342505 -3.100881 5.142885 -0.332762 11.246427 -18.417135 -14.364160 -15.601727 68.349419 1.679504 4.434252 20.797935 -17.258690 2.743577 
-10.419086 49.884216 46.257706 0.341797 3.486325 47.842415 59.930832 -15.912387 -6.095872 -29.384766 8.886719 4.132368 51.063168 8.107644 2.471410 -83.271484 -7.666015 73.095703 2.000000 -2.000000 0.000000 -69.609375 7.236329 18.175058 -114.331451 1.031462 -2.999988 81.356361 -10.582158 8.459620 -2.000000 2.000000 0.000000 70.771484 -38.974613 -24.384766 107.810478 -0.724722 -3.060296 -56.326694 -39.587559 50.928135 -11.784182 17.192938 1.829280 35.540638 -4.356698 -3.153085 28.273123 -0.628513 15.227407 -20.140812 -17.023827 -13.121979 67.293877 1.767548 4.421375 18.775267 -16.425064 -1.461956 
